<svg xmlns="http://www.w3.org/2000/svg" width="48" height="48" viewBox="0 0 48 48">
  <!-- 브랜드 파비콘: 네이비 원 + Shantell Sans R(실제 글리프 외곽선) + 코랄 데이터 포인트 -->
  <circle cx="24" cy="24" r="24" fill="#16243f"/>
  <path transform="translate(11.4 34) scale(0.028 -0.028)" fill="#ffffff" d="M147 -13Q108 -13 79.5 21.5Q51 56 51 122Q51 163 63.5 215.0Q76 267 102 329Q104 379 97.0 419.0Q90 459 79.0 498.5Q68 538 53 584Q42 624 55.5 646.5Q69 669 112 669Q162 669 190.5 634.5Q219 600 236 512L207 513Q244 575 291.0 619.0Q338 663 393.5 686.5Q449 710 508 710Q555 710 588.0 696.5Q621 683 642.5 659.0Q664 635 674.0 602.5Q684 570 684 533Q684 487 664.0 443.0Q644 399 604.5 360.5Q565 322 508.0 289.5Q451 257 376 233Q434 200 500.5 173.5Q567 147 634 129Q682 117 698.5 102.5Q715 88 715 65Q715 29 690.0 8.5Q665 -12 616 -12Q589 -12 544.5 0.5Q500 13 447.5 35.0Q395 57 343.5 85.0Q292 113 249.5 144.0Q207 175 183 206Q172 222 172.0 245.5Q172 269 183.0 289.5Q194 310 213 315Q302 336 363.0 365.0Q424 394 461.0 424.0Q498 454 514.5 481.0Q531 508 531 525Q531 542 523.0 551.5Q515 561 495 561Q479 561 452.5 550.5Q426 540 394.0 517.0Q362 494 330.0 456.0Q298 418 271.5 363.5Q245 309 229.0 235.0Q213 161 213 66Q213 38 205.5 20.5Q198 3 183.5 -5.0Q169 -13 147 -13Z"/>
  <circle cx="35" cy="14" r="3.2" fill="#e5654b"/>
</svg>
